ISO-10303-21;
HEADER;
FILE_DESCRIPTION(('Open CASCADE Model'),'2;1');
FILE_NAME('Open CASCADE Shape Model','2026-10-09T14:29:36',('Author'),(
    'Open CASCADE'),'Open CASCADE STEP processor 7.9','Open CASCADE 7.9'
  ,'Unknown');
FILE_SCHEMA(('AUTOMOTIVE_DESIGN { 1 0 10303 214 1 1 1 1 }'));
ENDSEC;
DATA;
#1 = APPLICATION_PROTOCOL_DEFINITION('international standard',
  'automotive_design',2000,#2);
#2 = APPLICATION_CONTEXT(
  'core data for automotive mechanical design processes');
#3 = SHAPE_DEFINITION_REPRESENTATION(#4,#10);
#4 = PRODUCT_DEFINITION_SHAPE('','',#5);
#5 = PRODUCT_DEFINITION('design','',#6,#9);
#6 = PRODUCT_DEFINITION_FORMATION('','',#7);
#7 = PRODUCT('Open CASCADE STEP translator 7.9 10',
  'Open CASCADE STEP translator 7.9 10','',(#8));
#8 = PRODUCT_CONTEXT('',#2,'mechanical');
#9 = PRODUCT_DEFINITION_CONTEXT('part definition',#2,'design');
#10 = ADVANCED_BREP_SHAPE_REPRESENTATION('',(#11,#15),#855);
#11 = AXIS2_PLACEMENT_3D('',#12,#13,#14);
#12 = CARTESIAN_POINT('',(0.,0.,0.));
#13 = DIRECTION('',(0.,0.,1.));
#14 = DIRECTION('',(1.,0.,-0.));
#15 = MANIFOLD_SOLID_BREP('',#16);
#16 = CLOSED_SHELL('',(#17,#729,#733,#737,#792,#847,#851));
#17 = ADVANCED_FACE('',(#18,#105,#417),#31,.T.);
#18 = FACE_BOUND('',#19,.T.);
#19 = EDGE_LOOP('',(#20,#54,#77,#104));
#20 = ORIENTED_EDGE('',*,*,#21,.F.);
#21 = EDGE_CURVE('',#22,#22,#24,.T.);
#22 = VERTEX_POINT('',#23);
#23 = CARTESIAN_POINT('',(142.5,-3.061616997868E-15,1.E+03));
#24 = SURFACE_CURVE('',#25,(#30,#42),.PCURVE_S1.);
#25 = CIRCLE('',#26,12.5);
#26 = AXIS2_PLACEMENT_3D('',#27,#28,#29);
#27 = CARTESIAN_POINT('',(130.,0.,1.E+03));
#28 = DIRECTION('',(0.,0.,1.));
#29 = DIRECTION('',(1.,0.,-0.));
#30 = PCURVE('',#31,#36);
#31 = CYLINDRICAL_SURFACE('',#32,12.5);
#32 = AXIS2_PLACEMENT_3D('',#33,#34,#35);
#33 = CARTESIAN_POINT('',(130.,0.,700.));
#34 = DIRECTION('',(0.,0.,1.));
#35 = DIRECTION('',(1.,0.,-0.));
#36 = DEFINITIONAL_REPRESENTATION('',(#37),#41);
#37 = LINE('',#38,#39);
#38 = CARTESIAN_POINT('',(0.,300.));
#39 = VECTOR('',#40,1.);
#40 = DIRECTION('',(1.,0.));
#41 = ( GEOMETRIC_REPRESENTATION_CONTEXT(2) 
PARAMETRIC_REPRESENTATION_CONTEXT() REPRESENTATION_CONTEXT('2D SPACE',''
  ) );
#42 = PCURVE('',#43,#48);
#43 = PLANE('',#44);
#44 = AXIS2_PLACEMENT_3D('',#45,#46,#47);
#45 = CARTESIAN_POINT('',(130.,0.,1.E+03));
#46 = DIRECTION('',(0.,0.,1.));
#47 = DIRECTION('',(1.,0.,-0.));
#48 = DEFINITIONAL_REPRESENTATION('',(#49),#53);
#49 = CIRCLE('',#50,12.5);
#50 = AXIS2_PLACEMENT_2D('',#51,#52);
#51 = CARTESIAN_POINT('',(0.,0.));
#52 = DIRECTION('',(1.,0.));
#53 = ( GEOMETRIC_REPRESENTATION_CONTEXT(2) 
PARAMETRIC_REPRESENTATION_CONTEXT() REPRESENTATION_CONTEXT('2D SPACE',''
  ) );
#54 = ORIENTED_EDGE('',*,*,#55,.F.);
#55 = EDGE_CURVE('',#56,#22,#58,.T.);
#56 = VERTEX_POINT('',#57);
#57 = CARTESIAN_POINT('',(142.5,-3.061616997868E-15,700.));
#58 = SEAM_CURVE('',#59,(#63,#70),.PCURVE_S1.);
#59 = LINE('',#60,#61);
#60 = CARTESIAN_POINT('',(142.5,-3.061616997868E-15,700.));
#61 = VECTOR('',#62,1.);
#62 = DIRECTION('',(0.,0.,1.));
#63 = PCURVE('',#31,#64);
#64 = DEFINITIONAL_REPRESENTATION('',(#65),#69);
#65 = LINE('',#66,#67);
#66 = CARTESIAN_POINT('',(6.28318530718,-0.));
#67 = VECTOR('',#68,1.);
#68 = DIRECTION('',(0.,1.));
#69 = ( GEOMETRIC_REPRESENTATION_CONTEXT(2) 
PARAMETRIC_REPRESENTATION_CONTEXT() REPRESENTATION_CONTEXT('2D SPACE',''
  ) );
#70 = PCURVE('',#31,#71);
#71 = DEFINITIONAL_REPRESENTATION('',(#72),#76);
#72 = LINE('',#73,#74);
#73 = CARTESIAN_POINT('',(0.,-0.));
#74 = VECTOR('',#75,1.);
#75 = DIRECTION('',(0.,1.));
#76 = ( GEOMETRIC_REPRESENTATION_CONTEXT(2) 
PARAMETRIC_REPRESENTATION_CONTEXT() REPRESENTATION_CONTEXT('2D SPACE',''
  ) );
#77 = ORIENTED_EDGE('',*,*,#78,.T.);
#78 = EDGE_CURVE('',#56,#56,#79,.T.);
#79 = SURFACE_CURVE('',#80,(#85,#92),.PCURVE_S1.);
#80 = CIRCLE('',#81,12.5);
#81 = AXIS2_PLACEMENT_3D('',#82,#83,#84);
#82 = CARTESIAN_POINT('',(130.,0.,700.));
#83 = DIRECTION('',(0.,0.,1.));
#84 = DIRECTION('',(1.,0.,-0.));
#85 = PCURVE('',#31,#86);
#86 = DEFINITIONAL_REPRESENTATION('',(#87),#91);
#87 = LINE('',#88,#89);
#88 = CARTESIAN_POINT('',(0.,0.));
#89 = VECTOR('',#90,1.);
#90 = DIRECTION('',(1.,0.));
#91 = ( GEOMETRIC_REPRESENTATION_CONTEXT(2) 
PARAMETRIC_REPRESENTATION_CONTEXT() REPRESENTATION_CONTEXT('2D SPACE',''
  ) );
#92 = PCURVE('',#93,#98);
#93 = PLANE('',#94);
#94 = AXIS2_PLACEMENT_3D('',#95,#96,#97);
#95 = CARTESIAN_POINT('',(130.,0.,700.));
#96 = DIRECTION('',(0.,0.,1.));
#97 = DIRECTION('',(1.,0.,-0.));
#98 = DEFINITIONAL_REPRESENTATION('',(#99),#103);
#99 = CIRCLE('',#100,12.5);
#100 = AXIS2_PLACEMENT_2D('',#101,#102);
#101 = CARTESIAN_POINT('',(0.,0.));
#102 = DIRECTION('',(1.,0.));
#103 = ( GEOMETRIC_REPRESENTATION_CONTEXT(2) 
PARAMETRIC_REPRESENTATION_CONTEXT() REPRESENTATION_CONTEXT('2D SPACE',''
  ) );
#104 = ORIENTED_EDGE('',*,*,#55,.T.);
#105 = FACE_BOUND('',#106,.T.);
#106 = EDGE_LOOP('',(#107));
#107 = ORIENTED_EDGE('',*,*,#108,.T.);
#108 = EDGE_CURVE('',#109,#109,#111,.T.);
#109 = VERTEX_POINT('',#110);
#110 = CARTESIAN_POINT('',(117.5,1.959434878636E-15,723.));
#111 = SURFACE_CURVE('',#112,(#210,#311),.PCURVE_S1.);
#112 = B_SPLINE_CURVE_WITH_KNOTS('',6,(#113,#114,#115,#116,#117,#118,
    #119,#120,#121,#122,#123,#124,#125,#126,#127,#128,#129,#130,#131,
    #132,#133,#134,#135,#136,#137,#138,#139,#140,#141,#142,#143,#144,
    #145,#146,#147,#148,#149,#150,#151,#152,#153,#154,#155,#156,#157,
    #158,#159,#160,#161,#162,#163,#164,#165,#166,#167,#168,#169,#170,
    #171,#172,#173,#174,#175,#176,#177,#178,#179,#180,#181,#182,#183,
    #184,#185,#186,#187,#188,#189,#190,#191,#192,#193,#194,#195,#196,
    #197,#198,#199,#200,#201,#202,#203,#204,#205,#206,#207,#208,#209),
  .UNSPECIFIED.,.T.,.F.,(7,5,5,5,5,5,5,5,5,5,5,5,5,5,5,5,5,5,5,7),(0.,
    5.27160208088E-02,9.646798477304E-02,0.14681884569,0.198853231568,
    0.249808113176,0.301011365873,0.352790655137,0.421045297046,
    0.46762117623,0.521641489796,0.577700951083,0.646752487596,
    0.698824380068,0.74981599016,0.801056150366,0.852872762358,
    0.921176602511,0.967786053898,1.),.UNSPECIFIED.);
#113 = CARTESIAN_POINT('',(117.5,1.7763568394E-15,723.));
#114 = CARTESIAN_POINT('',(117.5,-0.562472986266,723.));
#115 = CARTESIAN_POINT('',(117.53037229826,-1.119521898642,
    722.95254393287));
#116 = CARTESIAN_POINT('',(117.59001726899,-1.662832109369,
    722.85934548728));
#117 = CARTESIAN_POINT('',(117.6754178526,-2.18427820891,722.72466890726
    ));
#118 = CARTESIAN_POINT('',(117.78080512543,-2.676491890738,
    722.55529627776));
#119 = CARTESIAN_POINT('',(117.99707050206,-3.511813178563,
    722.19977053578));
#120 = CARTESIAN_POINT('',(118.10484579775,-3.869433910532,
    722.01992513958));
#121 = CARTESIAN_POINT('',(118.21978772786,-4.206263240788,
    721.82437500419));
#122 = CARTESIAN_POINT('',(118.33972007737,-4.522987255656,
    721.61542964491));
#123 = CARTESIAN_POINT('',(118.46280269927,-4.820419293128,
    721.39489216844));
#124 = CARTESIAN_POINT('',(118.73090624274,-5.420440633553,
    720.89851134653));
#125 = CARTESIAN_POINT('',(118.87658049468,-5.717364206777,
    720.61907677296));
#126 = CARTESIAN_POINT('',(119.02208103668,-5.991357611759,
    720.32778362351));
#127 = CARTESIAN_POINT('',(119.16539558121,-6.243537720976,
    720.02592662289));
#128 = CARTESIAN_POINT('',(119.30471923712,-6.474822207439,
    719.71426482021));
#129 = CARTESIAN_POINT('',(119.57630301282,-6.903849195245,
    719.06134436244));
#130 = CARTESIAN_POINT('',(119.70822816981,-7.100301987336,
    718.71930734416));
#131 = CARTESIAN_POINT('',(119.83179693982,-7.275336422328,
    718.36815469177));
#132 = CARTESIAN_POINT('',(119.94483950611,-7.42902379644,718.0087505238
    ));
#133 = CARTESIAN_POINT('',(120.04528648529,-7.561302447841,
    717.64175647457));
#134 = CARTESIAN_POINT('',(120.21542276286,-7.78015801253,
    716.90133239061));
#135 = CARTESIAN_POINT('',(120.28574492151,-7.867675041118,
    716.5280275993));
#136 = CARTESIAN_POINT('',(120.34008037649,-7.93368782539,
    716.14965231602));
#137 = CARTESIAN_POINT('',(120.37687541893,-7.977863300395,
    715.76786212022));
#138 = CARTESIAN_POINT('',(120.39531364385,-8.,715.38416032305));
#139 = CARTESIAN_POINT('',(120.39531364385,-8.,714.61396715139));
#140 = CARTESIAN_POINT('',(120.37669523731,-7.977646975787,
    714.2284034223));
#141 = CARTESIAN_POINT('',(120.33954210851,-7.933041592532,
    713.84477931139));
#142 = CARTESIAN_POINT('',(120.28468618921,-7.866388652177,
    713.46461688042));
#143 = CARTESIAN_POINT('',(120.21370987819,-7.778026017114,
    713.08959384612));
#144 = CARTESIAN_POINT('',(120.04290086655,-7.558159399762,
    712.34954707833));
#145 = CARTESIAN_POINT('',(119.94271004976,-7.426126551111,
    711.98449839331));
#146 = CARTESIAN_POINT('',(119.83007746836,-7.272897309434,
    711.62697824011));
#147 = CARTESIAN_POINT('',(119.70704259317,-7.098530866423,
    711.27763764745));
#148 = CARTESIAN_POINT('',(119.57574255811,-6.902955115353,
    710.93732637893));
#149 = CARTESIAN_POINT('',(119.25735637375,-6.400013510529,
    710.17184519369));
#150 = CARTESIAN_POINT('',(119.06585669344,-6.076948077508,
    709.75423526451));
#151 = CARTESIAN_POINT('',(118.86821814263,-5.715206766532,
    709.35484131235));
#152 = CARTESIAN_POINT('',(118.66880967018,-5.312027848989,
    708.97572965337));
#153 = CARTESIAN_POINT('',(118.47306690006,-4.864121969059,
    708.62109815609));
#154 = CARTESIAN_POINT('',(118.16202395032,-4.030216320347,
    708.07754621584));
#155 = CARTESIAN_POINT('',(118.04049169672,-3.668589980857,
    707.87102024736));
#156 = CARTESIAN_POINT('',(117.92634407364,-3.283414787524,
    707.68157883134));
#157 = CARTESIAN_POINT('',(117.82259744099,-2.874793481387,
    707.5126089148));
#158 = CARTESIAN_POINT('',(117.73248171262,-2.44318604013,
    707.36781658402));
#159 = CARTESIAN_POINT('',(117.57451431979,-1.463340505845,
    707.11623501092));
#160 = CARTESIAN_POINT('',(117.51224760359,-0.905779128193,
    707.01878028332));
#161 = CARTESIAN_POINT('',(117.47992363322,-0.329573143306,
    706.96888237293));
#162 = CARTESIAN_POINT('',(117.48118297892,0.251766661045,706.9706417681
    ));
#163 = CARTESIAN_POINT('',(117.51490910647,0.824482676828,
    707.02296920094));
#164 = CARTESIAN_POINT('',(117.63919941454,1.947180080011,
    707.21891126472));
#165 = CARTESIAN_POINT('',(117.73134377847,2.490808964488,
    707.36508046658));
#166 = CARTESIAN_POINT('',(117.84682473747,3.003179014719,
    707.55055384353));
#167 = CARTESIAN_POINT('',(117.97985136021,3.482157120609,
    707.76865991317));
#168 = CARTESIAN_POINT('',(118.12468153259,3.926444403049,
    708.01287827192));
#169 = CARTESIAN_POINT('',(118.46221991179,4.839228948785,
    708.60146928776));
#170 = CARTESIAN_POINT('',(118.65993909573,5.294052691551,
    708.95888646808));
#171 = CARTESIAN_POINT('',(118.8615885422,5.703049013339,709.34146352826
    ));
#172 = CARTESIAN_POINT('',(119.06152900266,6.069631916674,
    709.74481705088));
#173 = CARTESIAN_POINT('',(119.2552463634,6.396668798105,710.16679636882
    ));
#174 = CARTESIAN_POINT('',(119.57630301282,6.903849195245,
    710.93865563755));
#175 = CARTESIAN_POINT('',(119.70822816981,7.100301987335,
    711.28069265583));
#176 = CARTESIAN_POINT('',(119.83179693982,7.275336422329,
    711.63184530822));
#177 = CARTESIAN_POINT('',(119.94483950611,7.42902379644,711.99124947619
    ));
#178 = CARTESIAN_POINT('',(120.04528648529,7.561302447841,
    712.35824352542));
#179 = CARTESIAN_POINT('',(120.21542276286,7.78015801253,713.09866760938
    ));
#180 = CARTESIAN_POINT('',(120.28574492151,7.867675041118,
    713.47197240069));
#181 = CARTESIAN_POINT('',(120.34008037649,7.93368782539,713.85034768397
    ));
#182 = CARTESIAN_POINT('',(120.37687541893,7.977863300395,
    714.23213787977));
#183 = CARTESIAN_POINT('',(120.39531364385,8.,714.61583967694));
#184 = CARTESIAN_POINT('',(120.39531364385,8.,715.3860328486));
#185 = CARTESIAN_POINT('',(120.37669523731,7.977646975787,
    715.77159657769));
#186 = CARTESIAN_POINT('',(120.33954210851,7.933041592532,716.1552206886
    ));
#187 = CARTESIAN_POINT('',(120.28468618921,7.866388652177,
    716.53538311957));
#188 = CARTESIAN_POINT('',(120.21370987819,7.778026017114,
    716.91040615387));
#189 = CARTESIAN_POINT('',(120.04290086653,7.558159399743,
    717.65045292173));
#190 = CARTESIAN_POINT('',(119.94271004976,7.426126551108,
    718.01550160667));
#191 = CARTESIAN_POINT('',(119.83007746838,7.272897309462,
    718.37302175982));
#192 = CARTESIAN_POINT('',(119.70704259318,7.098530866443,
    718.72236235253));
#193 = CARTESIAN_POINT('',(119.57574255808,6.902955115313,
    719.06267362112));
#194 = CARTESIAN_POINT('',(119.25735637375,6.400013510529,719.8281548063
    ));
#195 = CARTESIAN_POINT('',(119.06585669344,6.076948077508,
    720.24576473548));
#196 = CARTESIAN_POINT('',(118.86821814263,5.715206766531,
    720.64515868764));
#197 = CARTESIAN_POINT('',(118.66880967018,5.31202784899,721.02427034662
    ));
#198 = CARTESIAN_POINT('',(118.47306690006,4.864121969058,721.3789018439
    ));
#199 = CARTESIAN_POINT('',(118.16202395003,4.03021631958,721.92245378465
    ));
#200 = CARTESIAN_POINT('',(118.04049169689,3.668589981149,
    722.12897975231));
#201 = CARTESIAN_POINT('',(117.92634407389,3.283414788407,
    722.31842116828));
#202 = CARTESIAN_POINT('',(117.82259744093,2.874793481552,
    722.48739108529));
#203 = CARTESIAN_POINT('',(117.73248171246,2.443186039123,
    722.63218341623));
#204 = CARTESIAN_POINT('',(117.6087935534,1.675968905736,722.82917129501
    ));
#205 = CARTESIAN_POINT('',(117.56637214445,1.351995989091,
    722.89612435281));
#206 = CARTESIAN_POINT('',(117.53349847749,1.019941820222,
    722.94765859643));
#207 = CARTESIAN_POINT('',(117.511191127,0.682250803885,722.98251387261)
  );
#208 = CARTESIAN_POINT('',(117.5,0.341429183319,723.));
#209 = CARTESIAN_POINT('',(117.5,1.7763568394E-15,723.));
#210 = PCURVE('',#31,#211);
#211 = DEFINITIONAL_REPRESENTATION('',(#212),#310);
#212 = B_SPLINE_CURVE_WITH_KNOTS('',6,(#213,#214,#215,#216,#217,#218,
    #219,#220,#221,#222,#223,#224,#225,#226,#227,#228,#229,#230,#231,
    #232,#233,#234,#235,#236,#237,#238,#239,#240,#241,#242,#243,#244,
    #245,#246,#247,#248,#249,#250,#251,#252,#253,#254,#255,#256,#257,
    #258,#259,#260,#261,#262,#263,#264,#265,#266,#267,#268,#269,#270,
    #271,#272,#273,#274,#275,#276,#277,#278,#279,#280,#281,#282,#283,
    #284,#285,#286,#287,#288,#289,#290,#291,#292,#293,#294,#295,#296,
    #297,#298,#299,#300,#301,#302,#303,#304,#305,#306,#307,#308,#309),
  .UNSPECIFIED.,.T.,.F.,(7,5,5,5,5,5,5,5,5,5,5,5,5,5,5,5,5,5,5,7),(0.,
    5.27160208088E-02,9.646798477304E-02,0.14681884569,0.198853231568,
    0.249808113176,0.301011365873,0.352790655137,0.421045297046,
    0.46762117623,0.521641489796,0.577700951083,0.646752487596,
    0.698824380068,0.74981599016,0.801056150366,0.852872762358,
    0.921176602511,0.967786053898,1.),.UNSPECIFIED.);
#213 = CARTESIAN_POINT('',(3.14159265359,23.));
#214 = CARTESIAN_POINT('',(3.186590492491,23.));
#215 = CARTESIAN_POINT('',(3.231154476879,22.952543932869));
#216 = CARTESIAN_POINT('',(3.27478294559,22.85934548728));
#217 = CARTESIAN_POINT('',(3.316975767827,22.724668907265));
#218 = CARTESIAN_POINT('',(3.357209173505,22.555296277761));
#219 = CARTESIAN_POINT('',(3.426238204709,22.199770535788));
#220 = CARTESIAN_POINT('',(3.456095672888,22.019925139582));
#221 = CARTESIAN_POINT('',(3.484541857502,21.824375004198));
#222 = CARTESIAN_POINT('',(3.511615892492,21.615429644916));
#223 = CARTESIAN_POINT('',(3.537357352724,21.394892168449));
#224 = CARTESIAN_POINT('',(3.589932943653,20.89851134653));
#225 = CARTESIAN_POINT('',(3.616374681373,20.61907677296));
#226 = CARTESIAN_POINT('',(3.641175561661,20.327783623515));
#227 = CARTESIAN_POINT('',(3.664368607052,20.025926622896));
#228 = CARTESIAN_POINT('',(3.685963733216,19.714264820214));
#229 = CARTESIAN_POINT('',(3.726584666025,19.061344362445));
#230 = CARTESIAN_POINT('',(3.745508865009,18.719307344163));
#231 = CARTESIAN_POINT('',(3.762643561731,18.368154691779));
#232 = CARTESIAN_POINT('',(3.777903386067,18.008750523804));
#233 = CARTESIAN_POINT('',(3.791190056582,17.641756474577));
#234 = CARTESIAN_POINT('',(3.8133666729,16.901332390614));
#235 = CARTESIAN_POINT('',(3.822347058379,16.528027599304));
#236 = CARTESIAN_POINT('',(3.829186732812,16.149652316024));
#237 = CARTESIAN_POINT('',(3.833786148635,15.767862120221));
#238 = CARTESIAN_POINT('',(3.836090919216,15.384160323055));
#239 = CARTESIAN_POINT('',(3.836090919216,14.613967151397));
#240 = CARTESIAN_POINT('',(3.833763626206,14.228403422309));
#241 = CARTESIAN_POINT('',(3.829119448304,13.844779311393));
#242 = CARTESIAN_POINT('',(3.822213779624,13.464616880428));
#243 = CARTESIAN_POINT('',(3.813147913922,13.089593846126));
#244 = CARTESIAN_POINT('',(3.790874407093,12.349547078332));
#245 = CARTESIAN_POINT('',(3.777615789991,11.984498393311));
#246 = CARTESIAN_POINT('',(3.762404904821,11.626978240117));
#247 = CARTESIAN_POINT('',(3.745338425443,11.277637647452));
#248 = CARTESIAN_POINT('',(3.726500249287,10.937326378932));
#249 = CARTESIAN_POINT('',(3.678880420124,10.171845193698));
#250 = CARTESIAN_POINT('',(3.648848683184,9.754235264516));
#251 = CARTESIAN_POINT('',(3.615904412191,9.354841312356));
#252 = CARTESIAN_POINT('',(3.579972511114,8.975729653373));
#253 = CARTESIAN_POINT('',(3.540926820551,8.621098156092));
#254 = CARTESIAN_POINT('',(3.469724737546,8.077546215847));
#255 = CARTESIAN_POINT('',(3.439221003742,7.871020247361));
#256 = CARTESIAN_POINT('',(3.407115237206,7.681578831343));
#257 = CARTESIAN_POINT('',(3.373431804103,7.512608914808));
#258 = CARTESIAN_POINT('',(3.338195926374,7.367816584026));
#259 = CARTESIAN_POINT('',(3.258796139241,7.116235010921));
#260 = CARTESIAN_POINT('',(3.213966756179,7.018780283326));
#261 = CARTESIAN_POINT('',(3.167907927444,6.968882372939));
#262 = CARTESIAN_POINT('',(3.121516238595,6.970641768107));
#263 = CARTESIAN_POINT('',(3.075680053445,7.022969200941));
#264 = CARTESIAN_POINT('',(2.98531554573,7.218911264721));
#265 = CARTESIAN_POINT('',(2.941278198197,7.36508046658));
#266 = CARTESIAN_POINT('',(2.89934548895,7.55055384353));
#267 = CARTESIAN_POINT('',(2.85963828107,7.768659913179));
#268 = CARTESIAN_POINT('',(2.822283023006,8.012878271922));
#269 = CARTESIAN_POINT('',(2.744427452749,8.601469287761));
#270 = CARTESIAN_POINT('',(2.704814053391,8.958886468086));
#271 = CARTESIAN_POINT('',(2.668387614071,9.341463528265));
#272 = CARTESIAN_POINT('',(2.635016356102,9.744817050883));
#273 = CARTESIAN_POINT('',(2.604621258552,10.166796368829));
#274 = CARTESIAN_POINT('',(2.556600641154,10.938655637555));
#275 = CARTESIAN_POINT('',(2.537676442171,11.280692655836));
#276 = CARTESIAN_POINT('',(2.520541745448,11.631845308222));
#277 = CARTESIAN_POINT('',(2.505281921113,11.991249476196));
#278 = CARTESIAN_POINT('',(2.491995250597,12.358243525423));
#279 = CARTESIAN_POINT('',(2.46981863428,13.098667609386));
#280 = CARTESIAN_POINT('',(2.4608382488,13.471972400696));
#281 = CARTESIAN_POINT('',(2.453998574367,13.850347683977));
#282 = CARTESIAN_POINT('',(2.449399158545,14.23213787978));
#283 = CARTESIAN_POINT('',(2.447094387963,14.615839676944));
#284 = CARTESIAN_POINT('',(2.447094387963,15.386032848602));
#285 = CARTESIAN_POINT('',(2.449421680974,15.771596577691));
#286 = CARTESIAN_POINT('',(2.454065858875,16.155220688607));
#287 = CARTESIAN_POINT('',(2.460971527555,16.535383119572));
#288 = CARTESIAN_POINT('',(2.470037393257,16.910406153874));
#289 = CARTESIAN_POINT('',(2.492310900088,17.650452921733));
#290 = CARTESIAN_POINT('',(2.505569517189,18.015501606671));
#291 = CARTESIAN_POINT('',(2.520780402355,18.37302175982));
#292 = CARTESIAN_POINT('',(2.537846881735,18.722362352533));
#293 = CARTESIAN_POINT('',(2.556685057896,19.062673621129));
#294 = CARTESIAN_POINT('',(2.604304887056,19.828154806302));
#295 = CARTESIAN_POINT('',(2.634336623996,20.245764735483));
#296 = CARTESIAN_POINT('',(2.667280894989,20.645158687644));
#297 = CARTESIAN_POINT('',(2.703212796065,21.024270346626));
#298 = CARTESIAN_POINT('',(2.742258486629,21.378901843908));
#299 = CARTESIAN_POINT('',(2.813460569699,21.922453784652));
#300 = CARTESIAN_POINT('',(2.843964303411,22.128979752318));
#301 = CARTESIAN_POINT('',(2.876070069902,22.31842116828));
#302 = CARTESIAN_POINT('',(2.909753503064,22.487391085299));
#303 = CARTESIAN_POINT('',(2.944989380887,22.632183416232));
#304 = CARTESIAN_POINT('',(3.007159258632,22.829171295012));
#305 = CARTESIAN_POINT('',(3.033286858783,22.896124352811));
#306 = CARTESIAN_POINT('',(3.059960645027,22.947658596437));
#307 = CARTESIAN_POINT('',(3.087012584539,22.982513872618));
#308 = CARTESIAN_POINT('',(3.114278318924,23.));
#309 = CARTESIAN_POINT('',(3.14159265359,23.));
#310 = ( GEOMETRIC_REPRESENTATION_CONTEXT(2) 
PARAMETRIC_REPRESENTATION_CONTEXT() REPRESENTATION_CONTEXT('2D SPACE',''
  ) );
#311 = PCURVE('',#312,#317);
#312 = CYLINDRICAL_SURFACE('',#313,8.);
#313 = AXIS2_PLACEMENT_3D('',#314,#315,#316);
#314 = CARTESIAN_POINT('',(80.,0.,715.));
#315 = DIRECTION('',(1.,0.,0.));
#316 = DIRECTION('',(-0.,0.,1.));
#317 = DEFINITIONAL_REPRESENTATION('',(#318),#416);
#318 = B_SPLINE_CURVE_WITH_KNOTS('',6,(#319,#320,#321,#322,#323,#324,
    #325,#326,#327,#328,#329,#330,#331,#332,#333,#334,#335,#336,#337,
    #338,#339,#340,#341,#342,#343,#344,#345,#346,#347,#348,#349,#350,
    #351,#352,#353,#354,#355,#356,#357,#358,#359,#360,#361,#362,#363,
    #364,#365,#366,#367,#368,#369,#370,#371,#372,#373,#374,#375,#376,
    #377,#378,#379,#380,#381,#382,#383,#384,#385,#386,#387,#388,#389,
    #390,#391,#392,#393,#394,#395,#396,#397,#398,#399,#400,#401,#402,
    #403,#404,#405,#406,#407,#408,#409,#410,#411,#412,#413,#414,#415),
  .UNSPECIFIED.,.F.,.F.,(7,5,5,5,5,5,5,5,5,5,5,5,5,5,5,5,5,5,5,7),(0.,
    5.27160208088E-02,9.646798477304E-02,0.14681884569,0.198853231568,
    0.249808113176,0.301011365873,0.352790655137,0.421045297046,
    0.46762117623,0.521641489796,0.577700951083,0.646752487596,
    0.698824380068,0.74981599016,0.801056150366,0.852872762358,
    0.921176602511,0.967786053898,1.),.UNSPECIFIED.);
#319 = CARTESIAN_POINT('',(0.,37.5));
#320 = CARTESIAN_POINT('',(7.030912328319E-02,37.5));
#321 = CARTESIAN_POINT('',(0.13994019751,37.530372298264));
#322 = CARTESIAN_POINT('',(0.208479806468,37.59001726899));
#323 = CARTESIAN_POINT('',(0.275476399583,37.675417852604));
#324 = CARTESIAN_POINT('',(0.340379991035,37.780805125437));
#325 = CARTESIAN_POINT('',(0.453859078254,37.997070502063));
#326 = CARTESIAN_POINT('',(0.50379504225,38.104845797755));
#327 = CARTESIAN_POINT('',(0.552353737849,38.219787727861));
#328 = CARTESIAN_POINT('',(0.599673869067,38.339720077374));
#329 = CARTESIAN_POINT('',(0.645892786422,38.462802699277));
#330 = CARTESIAN_POINT('',(0.743233965508,38.730906242742));
#331 = CARTESIAN_POINT('',(0.794096912781,38.876580494681));
#332 = CARTESIAN_POINT('',(0.843949684663,39.02208103668));
#333 = CARTESIAN_POINT('',(0.892993722155,39.165395581213));
#334 = CARTESIAN_POINT('',(0.941427672128,39.304719237125));
#335 = CARTESIAN_POINT('',(1.039085339552,39.576303012822));
#336 = CARTESIAN_POINT('',(1.088301681462,39.708228169818));
#337 = CARTESIAN_POINT('',(1.137220052326,39.831796939823));
#338 = CARTESIAN_POINT('',(1.185957050252,39.944839506118));
#339 = CARTESIAN_POINT('',(1.234636701836,40.045286485298));
#340 = CARTESIAN_POINT('',(1.331148163454,40.215422762868));
#341 = CARTESIAN_POINT('',(1.378998257236,40.285744921516));
#342 = CARTESIAN_POINT('',(1.426890356726,40.340080376499));
#343 = CARTESIAN_POINT('',(1.474813592294,40.376875418937));
#344 = CARTESIAN_POINT('',(1.522776286413,40.395313643851));
#345 = CARTESIAN_POINT('',(1.61905043287,40.395313643851));
#346 = CARTESIAN_POINT('',(1.667245867529,40.376695237316));
#347 = CARTESIAN_POINT('',(1.715401275786,40.339542108517));
#348 = CARTESIAN_POINT('',(1.763525465119,40.284686189216));
#349 = CARTESIAN_POINT('',(1.811607685296,40.213709878192));
#350 = CARTESIAN_POINT('',(1.908109834555,40.042900866553));
#351 = CARTESIAN_POINT('',(1.956551566204,39.942710049768));
#352 = CARTESIAN_POINT('',(2.005051319136,39.830077468366));
#353 = CARTESIAN_POINT('',(2.053731564122,39.707042593171));
#354 = CARTESIAN_POINT('',(2.102707548612,39.575742558112));
#355 = CARTESIAN_POINT('',(2.217197702584,39.257356373759));
#356 = CARTESIAN_POINT('',(2.282999879533,39.065856693445));
#357 = CARTESIAN_POINT('',(2.350049359882,38.868218142637));
#358 = CARTESIAN_POINT('',(2.418873920797,38.668809670182));
#359 = CARTESIAN_POINT('',(2.489984270155,38.473066900063));
#360 = CARTESIAN_POINT('',(2.614410914125,38.162023950323));
#361 = CARTESIAN_POINT('',(2.666376778552,38.040491696721));
#362 = CARTESIAN_POINT('',(2.719873735972,37.926344073648));
#363 = CARTESIAN_POINT('',(2.774960451617,37.822597440998));
#364 = CARTESIAN_POINT('',(2.831717488123,37.732481712623));
#365 = CARTESIAN_POINT('',(2.958170947879,37.574514319798));
#366 = CARTESIAN_POINT('',(3.028705962235,37.512247603592));
#367 = CARTESIAN_POINT('',(3.100583890477,37.479923633223));
#368 = CARTESIAN_POINT('',(3.172822492694,37.481182978921));
#369 = CARTESIAN_POINT('',(3.244470480289,37.514909106479));
#370 = CARTESIAN_POINT('',(3.386928958421,37.639199414549));
#371 = CARTESIAN_POINT('',(3.457012107106,37.731343778477));
#372 = CARTESIAN_POINT('',(3.524777651475,37.846824737477));
#373 = CARTESIAN_POINT('',(3.59027532426,37.979851360212));
#374 = CARTESIAN_POINT('',(3.65349274979,38.124681532594));
#375 = CARTESIAN_POINT('',(3.789255353421,38.462219911796));
#376 = CARTESIAN_POINT('',(3.861248035949,38.659939095733));
#377 = CARTESIAN_POINT('',(3.930886747697,38.861588542203));
#378 = CARTESIAN_POINT('',(3.998699106989,39.061529002668));
#379 = CARTESIAN_POINT('',(4.065230583175,39.255246363404));
#380 = CARTESIAN_POINT('',(4.180677993142,39.576303012822));
#381 = CARTESIAN_POINT('',(4.229894335052,39.708228169818));
#382 = CARTESIAN_POINT('',(4.278812705915,39.831796939823));
#383 = CARTESIAN_POINT('',(4.327549703841,39.944839506117));
#384 = CARTESIAN_POINT('',(4.376229355426,40.045286485298));
#385 = CARTESIAN_POINT('',(4.472740817043,40.215422762868));
#386 = CARTESIAN_POINT('',(4.520590910825,40.285744921516));
#387 = CARTESIAN_POINT('',(4.568483010316,40.340080376499));
#388 = CARTESIAN_POINT('',(4.616406245884,40.376875418937));
#389 = CARTESIAN_POINT('',(4.664368940003,40.395313643851));
#390 = CARTESIAN_POINT('',(4.76064308646,40.395313643851));
#391 = CARTESIAN_POINT('',(4.808838521119,40.376695237316));
#392 = CARTESIAN_POINT('',(4.856993929375,40.339542108517));
#393 = CARTESIAN_POINT('',(4.905118118709,40.284686189216));
#394 = CARTESIAN_POINT('',(4.953200338886,40.213709878192));
#395 = CARTESIAN_POINT('',(5.049702488154,40.042900866538));
#396 = CARTESIAN_POINT('',(5.098144219792,39.942710049766));
#397 = CARTESIAN_POINT('',(5.146643972717,39.830077468388));
#398 = CARTESIAN_POINT('',(5.195324217709,39.707042593181));
#399 = CARTESIAN_POINT('',(5.244300202211,39.575742558087));
#400 = CARTESIAN_POINT('',(5.358790356174,39.257356373759));
#401 = CARTESIAN_POINT('',(5.424592533123,39.065856693445));
#402 = CARTESIAN_POINT('',(5.491642013472,38.868218142637));
#403 = CARTESIAN_POINT('',(5.560466574387,38.668809670182));
#404 = CARTESIAN_POINT('',(5.631576923745,38.473066900063));
#405 = CARTESIAN_POINT('',(5.75600356783,38.162023950037));
#406 = CARTESIAN_POINT('',(5.807969432089,38.040491696891));
#407 = CARTESIAN_POINT('',(5.861466389445,37.926344073892));
#408 = CARTESIAN_POINT('',(5.91655310519,37.822597440933));
#409 = CARTESIAN_POINT('',(5.973310141843,37.732481712461));
#410 = CARTESIAN_POINT('',(6.072322953052,37.608793553408));
#411 = CARTESIAN_POINT('',(6.113628608995,37.566372144455));
#412 = CARTESIAN_POINT('',(6.1555526452,37.533498477494));
#413 = CARTESIAN_POINT('',(6.197903957986,37.511191127004));
#414 = CARTESIAN_POINT('',(6.240506659265,37.5));
#415 = CARTESIAN_POINT('',(6.28318530718,37.5));
#416 = ( GEOMETRIC_REPRESENTATION_CONTEXT(2) 
PARAMETRIC_REPRESENTATION_CONTEXT() REPRESENTATION_CONTEXT('2D SPACE',''
  ) );
#417 = FACE_BOUND('',#418,.T.);
#418 = EDGE_LOOP('',(#419));
#419 = ORIENTED_EDGE('',*,*,#420,.T.);
#420 = EDGE_CURVE('',#421,#421,#423,.T.);
#421 = VERTEX_POINT('',#422);
#422 = CARTESIAN_POINT('',(117.5,1.959434878636E-15,993.));
#423 = SURFACE_CURVE('',#424,(#522,#623),.PCURVE_S1.);
#424 = B_SPLINE_CURVE_WITH_KNOTS('',6,(#425,#426,#427,#428,#429,#430,
    #431,#432,#433,#434,#435,#436,#437,#438,#439,#440,#441,#442,#443,
    #444,#445,#446,#447,#448,#449,#450,#451,#452,#453,#454,#455,#456,
    #457,#458,#459,#460,#461,#462,#463,#464,#465,#466,#467,#468,#469,
    #470,#471,#472,#473,#474,#475,#476,#477,#478,#479,#480,#481,#482,
    #483,#484,#485,#486,#487,#488,#489,#490,#491,#492,#493,#494,#495,
    #496,#497,#498,#499,#500,#501,#502,#503,#504,#505,#506,#507,#508,
    #509,#510,#511,#512,#513,#514,#515,#516,#517,#518,#519,#520,#521),
  .UNSPECIFIED.,.T.,.F.,(7,5,5,5,5,5,5,5,5,5,5,5,5,5,5,5,5,5,5,7),(0.,
    5.271602035568E-02,9.646798394276E-02,0.146818849407,0.198853235221,
    0.249808116756,0.30101136938,0.35279065857,0.421045300383,
    0.467621179606,0.521641493091,0.577700954036,0.646752490127,
    0.698824382271,0.749815992031,0.801056151905,0.852872763561,
    0.92117660327,0.96778605425,1.),.UNSPECIFIED.);
#425 = CARTESIAN_POINT('',(117.5,1.7763568394E-15,993.));
#426 = CARTESIAN_POINT('',(117.5,-0.562472986266,993.));
#427 = CARTESIAN_POINT('',(117.53037229826,-1.119521898641,
    992.95254393286));
#428 = CARTESIAN_POINT('',(117.59001726899,-1.662832109369,
    992.85934548728));
#429 = CARTESIAN_POINT('',(117.6754178526,-2.184278208909,
    992.72466890726));
#430 = CARTESIAN_POINT('',(117.78080512543,-2.676491890738,
    992.55529627776));
#431 = CARTESIAN_POINT('',(117.99707050206,-3.511813178553,
    992.19977053579));
#432 = CARTESIAN_POINT('',(118.10484579775,-3.869433910535,
    992.01992513958));
#433 = CARTESIAN_POINT('',(118.21978772786,-4.206263240795,
    991.82437500419));
#434 = CARTESIAN_POINT('',(118.33972007737,-4.522987255658,
    991.61542964491));
#435 = CARTESIAN_POINT('',(118.46280269927,-4.820419293121,
    991.39489216845));
#436 = CARTESIAN_POINT('',(118.73090625693,-5.420440665322,
    990.89851132024));
#437 = CARTESIAN_POINT('',(118.87658047321,-5.717364164845,
    990.61907681741));
#438 = CARTESIAN_POINT('',(119.02208103571,-5.9913576059,990.32778362218
    ));
#439 = CARTESIAN_POINT('',(119.16539560219,-6.243537760095,
    990.02592657789));
#440 = CARTESIAN_POINT('',(119.30471922492,-6.474822188166,
    989.71426484954));
#441 = CARTESIAN_POINT('',(119.57630301279,-6.903849195201,
    989.06134436251));
#442 = CARTESIAN_POINT('',(119.70822816982,-7.100301987358,
    988.71930734414));
#443 = CARTESIAN_POINT('',(119.83179693984,-7.275336422358,
    988.36815469171));
#444 = CARTESIAN_POINT('',(119.94483950611,-7.429023796436,
    988.00875052378));
#445 = CARTESIAN_POINT('',(120.04528648528,-7.56130244782,
    987.64175647464));
#446 = CARTESIAN_POINT('',(120.21542276286,-7.78015801253,
    986.90133239061));
#447 = CARTESIAN_POINT('',(120.28574492151,-7.867675041117,
    986.5280275993));
#448 = CARTESIAN_POINT('',(120.34008037649,-7.93368782539,
    986.14965231602));
#449 = CARTESIAN_POINT('',(120.37687541893,-7.977863300395,
    985.76786212022));
#450 = CARTESIAN_POINT('',(120.39531364385,-8.,985.38416032305));
#451 = CARTESIAN_POINT('',(120.39531364385,-8.,984.61396715139));
#452 = CARTESIAN_POINT('',(120.37669523731,-7.977646975787,
    984.22840342231));
#453 = CARTESIAN_POINT('',(120.33954210851,-7.933041592532,
    983.84477931139));
#454 = CARTESIAN_POINT('',(120.28468618921,-7.866388652177,
    983.46461688042));
#455 = CARTESIAN_POINT('',(120.21370987819,-7.778026017114,
    983.08959384612));
#456 = CARTESIAN_POINT('',(120.04290086655,-7.558159399762,
    982.34954707833));
#457 = CARTESIAN_POINT('',(119.94271004976,-7.426126551112,
    981.98449839331));
#458 = CARTESIAN_POINT('',(119.83007746836,-7.272897309434,
    981.62697824011));
#459 = CARTESIAN_POINT('',(119.70704259317,-7.098530866424,
    981.27763764745));
#460 = CARTESIAN_POINT('',(119.57574255811,-6.902955115354,
    980.93732637893));
#461 = CARTESIAN_POINT('',(119.25735637375,-6.40001351053,980.1718451937
    ));
#462 = CARTESIAN_POINT('',(119.06585669344,-6.076948077509,
    979.75423526451));
#463 = CARTESIAN_POINT('',(118.86821814263,-5.715206766532,
    979.35484131235));
#464 = CARTESIAN_POINT('',(118.66880967018,-5.31202784899,
    978.97572965337));
#465 = CARTESIAN_POINT('',(118.47306690006,-4.864121969059,
    978.62109815609));
#466 = CARTESIAN_POINT('',(118.16202395003,-4.030216319581,
    978.07754621534));
#467 = CARTESIAN_POINT('',(118.04049169689,-3.668589981152,
    977.87102024768));
#468 = CARTESIAN_POINT('',(117.92634407389,-3.283414788404,
    977.68157883171));
#469 = CARTESIAN_POINT('',(117.82259744093,-2.874793481554,
    977.5126089147));
#470 = CARTESIAN_POINT('',(117.73248171246,-2.443186039123,
    977.36781658376));
#471 = CARTESIAN_POINT('',(117.57451432018,-1.463340508254,
    977.11623501153));
#472 = CARTESIAN_POINT('',(117.51224760291,-0.905779120116,
    977.01878028225));
#473 = CARTESIAN_POINT('',(117.47992363348,-0.329573154905,
    976.96888237335));
#474 = CARTESIAN_POINT('',(117.48118297923,0.251766669311,
    976.97064176859));
#475 = CARTESIAN_POINT('',(117.51490910619,0.824482674293,
    977.02296920049));
#476 = CARTESIAN_POINT('',(117.63919941455,1.947180080023,
    977.21891126472));
#477 = CARTESIAN_POINT('',(117.73134377847,2.490808964467,
    977.36508046657));
#478 = CARTESIAN_POINT('',(117.84682473747,3.003179014725,
    977.55055384352));
#479 = CARTESIAN_POINT('',(117.97985136021,3.482157120621,
    977.76865991318));
#480 = CARTESIAN_POINT('',(118.12468153259,3.926444403041,
    978.01287827191));
#481 = CARTESIAN_POINT('',(118.46221991179,4.839228948785,
    978.60146928776));
#482 = CARTESIAN_POINT('',(118.65993909573,5.294052691549,
    978.95888646808));
#483 = CARTESIAN_POINT('',(118.8615885422,5.70304901334,979.34146352826)
  );
#484 = CARTESIAN_POINT('',(119.06152900266,6.069631916673,
    979.74481705088));
#485 = CARTESIAN_POINT('',(119.2552463634,6.396668798105,980.16679636882
    ));
#486 = CARTESIAN_POINT('',(119.57630301279,6.903849195202,
    980.93865563748));
#487 = CARTESIAN_POINT('',(119.70822816982,7.100301987357,
    981.28069265585));
#488 = CARTESIAN_POINT('',(119.83179693984,7.275336422358,
    981.63184530828));
#489 = CARTESIAN_POINT('',(119.94483950611,7.429023796436,
    981.99124947621));
#490 = CARTESIAN_POINT('',(120.04528648528,7.56130244782,982.35824352535
    ));
#491 = CARTESIAN_POINT('',(120.21542276286,7.78015801253,983.09866760938
    ));
#492 = CARTESIAN_POINT('',(120.28574492151,7.867675041117,
    983.47197240069));
#493 = CARTESIAN_POINT('',(120.34008037649,7.93368782539,983.85034768397
    ));
#494 = CARTESIAN_POINT('',(120.37687541893,7.977863300395,
    984.23213787977));
#495 = CARTESIAN_POINT('',(120.39531364385,8.,984.61583967694));
#496 = CARTESIAN_POINT('',(120.39531364385,8.,985.3860328486));
#497 = CARTESIAN_POINT('',(120.37669523731,7.977646975787,
    985.77159657769));
#498 = CARTESIAN_POINT('',(120.33954210851,7.933041592532,986.1552206886
    ));
#499 = CARTESIAN_POINT('',(120.28468618921,7.866388652177,
    986.53538311957));
#500 = CARTESIAN_POINT('',(120.21370987819,7.778026017114,
    986.91040615387));
#501 = CARTESIAN_POINT('',(120.04290086653,7.558159399743,
    987.65045292173));
#502 = CARTESIAN_POINT('',(119.94271004976,7.426126551109,
    988.01550160667));
#503 = CARTESIAN_POINT('',(119.83007746838,7.272897309462,
    988.37302175981));
#504 = CARTESIAN_POINT('',(119.70704259318,7.098530866445,
    988.72236235253));
#505 = CARTESIAN_POINT('',(119.57574255808,6.902955115314,
    989.06267362112));
#506 = CARTESIAN_POINT('',(119.25735637376,6.400013510531,989.8281548063
    ));
#507 = CARTESIAN_POINT('',(119.06585669344,6.076948077508,
    990.24576473548));
#508 = CARTESIAN_POINT('',(118.86821814263,5.715206766534,
    990.64515868764));
#509 = CARTESIAN_POINT('',(118.66880967018,5.312027848989,
    991.02427034662));
#510 = CARTESIAN_POINT('',(118.47306690006,4.86412196906,991.3789018439)
  );
#511 = CARTESIAN_POINT('',(118.16202395032,4.03021632034,991.92245378415
    ));
#512 = CARTESIAN_POINT('',(118.04049169672,3.668589980859,
    992.12897975263));
#513 = CARTESIAN_POINT('',(117.92634407365,3.283414787535,
    992.31842116865));
#514 = CARTESIAN_POINT('',(117.82259744099,2.874793481388,
    992.48739108519));
#515 = CARTESIAN_POINT('',(117.73248171262,2.44318604012,992.63218341597
    ));
#516 = CARTESIAN_POINT('',(117.6087935534,1.675968905736,992.82917129501
    ));
#517 = CARTESIAN_POINT('',(117.56637214445,1.351995989092,
    992.89612435281));
#518 = CARTESIAN_POINT('',(117.53349847749,1.019941820222,
    992.94765859643));
#519 = CARTESIAN_POINT('',(117.511191127,0.682250803885,992.98251387261)
  );
#520 = CARTESIAN_POINT('',(117.5,0.341429183319,993.));
#521 = CARTESIAN_POINT('',(117.5,1.7763568394E-15,993.));
#522 = PCURVE('',#31,#523);
#523 = DEFINITIONAL_REPRESENTATION('',(#524),#622);
#524 = B_SPLINE_CURVE_WITH_KNOTS('',6,(#525,#526,#527,#528,#529,#530,
    #531,#532,#533,#534,#535,#536,#537,#538,#539,#540,#541,#542,#543,
    #544,#545,#546,#547,#548,#549,#550,#551,#552,#553,#554,#555,#556,
    #557,#558,#559,#560,#561,#562,#563,#564,#565,#566,#567,#568,#569,
    #570,#571,#572,#573,#574,#575,#576,#577,#578,#579,#580,#581,#582,
    #583,#584,#585,#586,#587,#588,#589,#590,#591,#592,#593,#594,#595,
    #596,#597,#598,#599,#600,#601,#602,#603,#604,#605,#606,#607,#608,
    #609,#610,#611,#612,#613,#614,#615,#616,#617,#618,#619,#620,#621),
  .UNSPECIFIED.,.T.,.F.,(7,5,5,5,5,5,5,5,5,5,5,5,5,5,5,5,5,5,5,7),(0.,
    5.271602035568E-02,9.646798394276E-02,0.146818849407,0.198853235221,
    0.249808116756,0.30101136938,0.35279065857,0.421045300383,
    0.467621179606,0.521641493091,0.577700954036,0.646752490127,
    0.698824382271,0.749815992031,0.801056151905,0.852872763561,
    0.92117660327,0.96778605425,1.),.UNSPECIFIED.);
#525 = CARTESIAN_POINT('',(3.14159265359,293.));
#526 = CARTESIAN_POINT('',(3.186590492491,293.));
#527 = CARTESIAN_POINT('',(3.231154476879,292.95254393286));
#528 = CARTESIAN_POINT('',(3.27478294559,292.85934548728));
#529 = CARTESIAN_POINT('',(3.316975767827,292.72466890726));
#530 = CARTESIAN_POINT('',(3.357209173505,292.55529627776));
#531 = CARTESIAN_POINT('',(3.426238204708,292.19977053579));
#532 = CARTESIAN_POINT('',(3.456095672888,292.01992513958));
#533 = CARTESIAN_POINT('',(3.484541857503,291.82437500419));
#534 = CARTESIAN_POINT('',(3.511615892492,291.61542964491));
#535 = CARTESIAN_POINT('',(3.537357352724,291.39489216845));
#536 = CARTESIAN_POINT('',(3.589932946437,290.89851132024));
#537 = CARTESIAN_POINT('',(3.616374677596,290.61907681741));
#538 = CARTESIAN_POINT('',(3.641175561211,290.32778362218));
#539 = CARTESIAN_POINT('',(3.664368610611,290.02592657789));
#540 = CARTESIAN_POINT('',(3.685963731391,289.71426484954));
#541 = CARTESIAN_POINT('',(3.726584666021,289.06134436251));
#542 = CARTESIAN_POINT('',(3.74550886501,288.71930734414));
#543 = CARTESIAN_POINT('',(3.762643561734,288.36815469171));
#544 = CARTESIAN_POINT('',(3.777903386066,288.00875052378));
#545 = CARTESIAN_POINT('',(3.79119005658,287.64175647464));
#546 = CARTESIAN_POINT('',(3.8133666729,286.90133239061));
#547 = CARTESIAN_POINT('',(3.822347058379,286.5280275993));
#548 = CARTESIAN_POINT('',(3.829186732812,286.14965231602));
#549 = CARTESIAN_POINT('',(3.833786148635,285.76786212022));
#550 = CARTESIAN_POINT('',(3.836090919216,285.38416032305));
#551 = CARTESIAN_POINT('',(3.836090919216,284.61396715139));
#552 = CARTESIAN_POINT('',(3.833763626206,284.22840342231));
#553 = CARTESIAN_POINT('',(3.829119448304,283.84477931139));
#554 = CARTESIAN_POINT('',(3.822213779624,283.46461688042));
#555 = CARTESIAN_POINT('',(3.813147913922,283.08959384612));
#556 = CARTESIAN_POINT('',(3.790874407093,282.34954707833));
#557 = CARTESIAN_POINT('',(3.777615789991,281.98449839331));
#558 = CARTESIAN_POINT('',(3.762404904821,281.62697824011));
#559 = CARTESIAN_POINT('',(3.745338425443,281.27763764745));
#560 = CARTESIAN_POINT('',(3.726500249287,280.93732637893));
#561 = CARTESIAN_POINT('',(3.678880420124,280.1718451937));
#562 = CARTESIAN_POINT('',(3.648848683184,279.75423526451));
#563 = CARTESIAN_POINT('',(3.615904412191,279.35484131235));
#564 = CARTESIAN_POINT('',(3.579972511115,278.97572965337));
#565 = CARTESIAN_POINT('',(3.540926820551,278.62109815609));
#566 = CARTESIAN_POINT('',(3.469724737481,278.07754621534));
#567 = CARTESIAN_POINT('',(3.439221003769,277.87102024768));
#568 = CARTESIAN_POINT('',(3.407115237278,277.68157883171));
#569 = CARTESIAN_POINT('',(3.373431804115,277.5126089147));
#570 = CARTESIAN_POINT('',(3.338195926293,277.36781658376));
#571 = CARTESIAN_POINT('',(3.258796139436,277.11623501153));
#572 = CARTESIAN_POINT('',(3.213966755527,277.01878028224));
#573 = CARTESIAN_POINT('',(3.167907928379,276.96888237335));
#574 = CARTESIAN_POINT('',(3.121516237929,276.97064176859));
#575 = CARTESIAN_POINT('',(3.075680053649,277.02296920049));
#576 = CARTESIAN_POINT('',(2.985315545729,277.21891126472));
#577 = CARTESIAN_POINT('',(2.941278198199,277.36508046657));
#578 = CARTESIAN_POINT('',(2.89934548895,277.55055384352));
#579 = CARTESIAN_POINT('',(2.859638281069,277.76865991318));
#580 = CARTESIAN_POINT('',(2.822283023006,278.01287827191));
#581 = CARTESIAN_POINT('',(2.744427452749,278.60146928776));
#582 = CARTESIAN_POINT('',(2.704814053391,278.95888646808));
#583 = CARTESIAN_POINT('',(2.668387614071,279.34146352826));
#584 = CARTESIAN_POINT('',(2.635016356102,279.74481705088));
#585 = CARTESIAN_POINT('',(2.604621258552,280.16679636882));
#586 = CARTESIAN_POINT('',(2.556600641158,280.93865563748));
#587 = CARTESIAN_POINT('',(2.537676442169,281.28069265585));
#588 = CARTESIAN_POINT('',(2.520541745445,281.63184530828));
#589 = CARTESIAN_POINT('',(2.505281921113,281.99124947621));
#590 = CARTESIAN_POINT('',(2.4919952506,282.35824352535));
#591 = CARTESIAN_POINT('',(2.46981863428,283.09866760938));
#592 = CARTESIAN_POINT('',(2.4608382488,283.47197240069));
#593 = CARTESIAN_POINT('',(2.453998574367,283.85034768397));
#594 = CARTESIAN_POINT('',(2.449399158545,284.23213787977));
#595 = CARTESIAN_POINT('',(2.447094387963,284.61583967694));
#596 = CARTESIAN_POINT('',(2.447094387963,285.3860328486));
#597 = CARTESIAN_POINT('',(2.449421680974,285.77159657769));
#598 = CARTESIAN_POINT('',(2.454065858875,286.1552206886));
#599 = CARTESIAN_POINT('',(2.460971527555,286.53538311957));
#600 = CARTESIAN_POINT('',(2.470037393257,286.91040615387));
#601 = CARTESIAN_POINT('',(2.492310900088,287.65045292173));
#602 = CARTESIAN_POINT('',(2.505569517189,288.01550160667));
#603 = CARTESIAN_POINT('',(2.520780402355,288.37302175981));
#604 = CARTESIAN_POINT('',(2.537846881734,288.72236235253));
#605 = CARTESIAN_POINT('',(2.556685057896,289.06267362112));
#606 = CARTESIAN_POINT('',(2.604304887056,289.8281548063));
#607 = CARTESIAN_POINT('',(2.634336623996,290.24576473548));
#608 = CARTESIAN_POINT('',(2.667280894989,290.64515868764));
#609 = CARTESIAN_POINT('',(2.703212796065,291.02427034662));
#610 = CARTESIAN_POINT('',(2.742258486629,291.3789018439));
#611 = CARTESIAN_POINT('',(2.813460569634,291.92245378415));
#612 = CARTESIAN_POINT('',(2.843964303438,292.12897975263));
#613 = CARTESIAN_POINT('',(2.876070069973,292.31842116865));
#614 = CARTESIAN_POINT('',(2.909753503077,292.48739108519));
#615 = CARTESIAN_POINT('',(2.944989380806,292.63218341597));
#616 = CARTESIAN_POINT('',(3.007159258633,292.82917129501));
#617 = CARTESIAN_POINT('',(3.033286858783,292.89612435281));
#618 = CARTESIAN_POINT('',(3.059960645027,292.94765859643));
#619 = CARTESIAN_POINT('',(3.08701258454,292.98251387261));
#620 = CARTESIAN_POINT('',(3.114278318924,293.));
#621 = CARTESIAN_POINT('',(3.14159265359,293.));
#622 = ( GEOMETRIC_REPRESENTATION_CONTEXT(2) 
PARAMETRIC_REPRESENTATION_CONTEXT() REPRESENTATION_CONTEXT('2D SPACE',''
  ) );
#623 = PCURVE('',#624,#629);
#624 = CYLINDRICAL_SURFACE('',#625,8.);
#625 = AXIS2_PLACEMENT_3D('',#626,#627,#628);
#626 = CARTESIAN_POINT('',(80.,0.,985.));
#627 = DIRECTION('',(1.,0.,0.));
#628 = DIRECTION('',(-0.,0.,1.));
#629 = DEFINITIONAL_REPRESENTATION('',(#630),#728);
#630 = B_SPLINE_CURVE_WITH_KNOTS('',6,(#631,#632,#633,#634,#635,#636,
    #637,#638,#639,#640,#641,#642,#643,#644,#645,#646,#647,#648,#649,
    #650,#651,#652,#653,#654,#655,#656,#657,#658,#659,#660,#661,#662,
    #663,#664,#665,#666,#667,#668,#669,#670,#671,#672,#673,#674,#675,
    #676,#677,#678,#679,#680,#681,#682,#683,#684,#685,#686,#687,#688,
    #689,#690,#691,#692,#693,#694,#695,#696,#697,#698,#699,#700,#701,
    #702,#703,#704,#705,#706,#707,#708,#709,#710,#711,#712,#713,#714,
    #715,#716,#717,#718,#719,#720,#721,#722,#723,#724,#725,#726,#727),
  .UNSPECIFIED.,.F.,.F.,(7,5,5,5,5,5,5,5,5,5,5,5,5,5,5,5,5,5,5,7),(0.,
    5.271602035568E-02,9.646798394276E-02,0.146818849407,0.198853235221,
    0.249808116756,0.30101136938,0.35279065857,0.421045300383,
    0.467621179606,0.521641493091,0.577700954036,0.646752490127,
    0.698824382271,0.749815992031,0.801056151905,0.852872763561,
    0.92117660327,0.96778605425,1.),.UNSPECIFIED.);
#631 = CARTESIAN_POINT('',(0.,37.5));
#632 = CARTESIAN_POINT('',(7.030912328329E-02,37.5));
#633 = CARTESIAN_POINT('',(0.13994019751,37.530372298263));
#634 = CARTESIAN_POINT('',(0.208479806468,37.59001726899));
#635 = CARTESIAN_POINT('',(0.275476399582,37.675417852604));
#636 = CARTESIAN_POINT('',(0.340379991035,37.780805125438));
#637 = CARTESIAN_POINT('',(0.453859078252,37.99707050206));
#638 = CARTESIAN_POINT('',(0.50379504225,38.104845797755));
#639 = CARTESIAN_POINT('',(0.55235373785,38.219787727864));
#640 = CARTESIAN_POINT('',(0.599673869068,38.339720077375));
#641 = CARTESIAN_POINT('',(0.645892786421,38.462802699274));
#642 = CARTESIAN_POINT('',(0.743233970662,38.730906256938));
#643 = CARTESIAN_POINT('',(0.794096905073,38.876580473213));
#644 = CARTESIAN_POINT('',(0.843949684294,39.022081035714));
#645 = CARTESIAN_POINT('',(0.892993729678,39.165395602193));
#646 = CARTESIAN_POINT('',(0.941427667741,39.304719224924));
#647 = CARTESIAN_POINT('',(1.039085339542,39.576303012794));
#648 = CARTESIAN_POINT('',(1.088301681466,39.708228169829));
#649 = CARTESIAN_POINT('',(1.137220052335,39.831796939847));
#650 = CARTESIAN_POINT('',(1.185957050254,39.944839506115));
#651 = CARTESIAN_POINT('',(1.234636701827,40.045286485282));
#652 = CARTESIAN_POINT('',(1.331148163454,40.215422762868));
#653 = CARTESIAN_POINT('',(1.378998257235,40.285744921515));
#654 = CARTESIAN_POINT('',(1.426890356727,40.340080376499));
#655 = CARTESIAN_POINT('',(1.474813592294,40.376875418936));
#656 = CARTESIAN_POINT('',(1.522776286413,40.395313643851));
#657 = CARTESIAN_POINT('',(1.61905043287,40.395313643851));
#658 = CARTESIAN_POINT('',(1.667245867529,40.376695237316));
#659 = CARTESIAN_POINT('',(1.715401275786,40.339542108517));
#660 = CARTESIAN_POINT('',(1.763525465119,40.284686189216));
#661 = CARTESIAN_POINT('',(1.811607685296,40.213709878192));
#662 = CARTESIAN_POINT('',(1.908109834555,40.042900866553));
#663 = CARTESIAN_POINT('',(1.956551566204,39.942710049768));
#664 = CARTESIAN_POINT('',(2.005051319135,39.830077468366));
#665 = CARTESIAN_POINT('',(2.053731564122,39.707042593171));
#666 = CARTESIAN_POINT('',(2.102707548612,39.575742558113));
#667 = CARTESIAN_POINT('',(2.217197702584,39.257356373759));
#668 = CARTESIAN_POINT('',(2.282999879533,39.065856693445));
#669 = CARTESIAN_POINT('',(2.350049359882,38.868218142638));
#670 = CARTESIAN_POINT('',(2.418873920797,38.668809670182));
#671 = CARTESIAN_POINT('',(2.489984270155,38.473066900064));
#672 = CARTESIAN_POINT('',(2.61441091424,38.162023950037));
#673 = CARTESIAN_POINT('',(2.666376778499,38.040491696891));
#674 = CARTESIAN_POINT('',(2.719873735856,37.926344073891));
#675 = CARTESIAN_POINT('',(2.7749604516,37.822597440934));
#676 = CARTESIAN_POINT('',(2.831717488253,37.732481712461));
#677 = CARTESIAN_POINT('',(2.958170947568,37.574514320187));
#678 = CARTESIAN_POINT('',(3.028705963269,37.512247602917));
#679 = CARTESIAN_POINT('',(3.100583889,37.479923633483));
#680 = CARTESIAN_POINT('',(3.172822493744,37.481182979233));
#681 = CARTESIAN_POINT('',(3.244470479967,37.514909106198));
#682 = CARTESIAN_POINT('',(3.386928958423,37.63919941455));
#683 = CARTESIAN_POINT('',(3.457012107103,37.731343778476));
#684 = CARTESIAN_POINT('',(3.524777651476,37.846824737474));
#685 = CARTESIAN_POINT('',(3.590275324262,37.979851360218));
#686 = CARTESIAN_POINT('',(3.653492749789,38.124681532591));
#687 = CARTESIAN_POINT('',(3.789255353421,38.462219911796));
#688 = CARTESIAN_POINT('',(3.861248035949,38.659939095732));
#689 = CARTESIAN_POINT('',(3.930886747697,38.861588542204));
#690 = CARTESIAN_POINT('',(3.998699106988,39.061529002668));
#691 = CARTESIAN_POINT('',(4.065230583175,39.255246363404));
#692 = CARTESIAN_POINT('',(4.180677993132,39.576303012795));
#693 = CARTESIAN_POINT('',(4.229894335055,39.708228169829));
#694 = CARTESIAN_POINT('',(4.278812705924,39.831796939846));
#695 = CARTESIAN_POINT('',(4.327549703843,39.944839506116));
#696 = CARTESIAN_POINT('',(4.376229355417,40.045286485282));
#697 = CARTESIAN_POINT('',(4.472740817044,40.215422762868));
#698 = CARTESIAN_POINT('',(4.520590910825,40.285744921515));
#699 = CARTESIAN_POINT('',(4.568483010316,40.340080376499));
#700 = CARTESIAN_POINT('',(4.616406245884,40.376875418937));
#701 = CARTESIAN_POINT('',(4.664368940003,40.395313643851));
#702 = CARTESIAN_POINT('',(4.76064308646,40.395313643851));
#703 = CARTESIAN_POINT('',(4.808838521119,40.376695237316));
#704 = CARTESIAN_POINT('',(4.856993929375,40.339542108517));
#705 = CARTESIAN_POINT('',(4.905118118709,40.284686189216));
#706 = CARTESIAN_POINT('',(4.953200338886,40.213709878192));
#707 = CARTESIAN_POINT('',(5.049702488153,40.042900866538));
#708 = CARTESIAN_POINT('',(5.098144219792,39.942710049767));
#709 = CARTESIAN_POINT('',(5.146643972717,39.830077468388));
#710 = CARTESIAN_POINT('',(5.195324217709,39.707042593182));
#711 = CARTESIAN_POINT('',(5.244300202211,39.575742558087));
#712 = CARTESIAN_POINT('',(5.358790356173,39.25735637376));
#713 = CARTESIAN_POINT('',(5.424592533123,39.065856693445));
#714 = CARTESIAN_POINT('',(5.491642013472,38.868218142638));
#715 = CARTESIAN_POINT('',(5.560466574387,38.668809670182));
#716 = CARTESIAN_POINT('',(5.631576923745,38.473066900064));
#717 = CARTESIAN_POINT('',(5.756003567716,38.16202395032));
#718 = CARTESIAN_POINT('',(5.807969432141,38.040491696723));
#719 = CARTESIAN_POINT('',(5.86146638956,37.926344073651));
#720 = CARTESIAN_POINT('',(5.916553105206,37.822597440997));
#721 = CARTESIAN_POINT('',(5.973310141714,37.732481712622));
#722 = CARTESIAN_POINT('',(6.072322953052,37.608793553408));
#723 = CARTESIAN_POINT('',(6.113628608995,37.566372144455));
#724 = CARTESIAN_POINT('',(6.1555526452,37.533498477494));
#725 = CARTESIAN_POINT('',(6.197903957986,37.511191127004));
#726 = CARTESIAN_POINT('',(6.240506659265,37.5));
#727 = CARTESIAN_POINT('',(6.28318530718,37.5));
#728 = ( GEOMETRIC_REPRESENTATION_CONTEXT(2) 
PARAMETRIC_REPRESENTATION_CONTEXT() REPRESENTATION_CONTEXT('2D SPACE',''
  ) );
#729 = ADVANCED_FACE('',(#730),#43,.T.);
#730 = FACE_BOUND('',#731,.T.);
#731 = EDGE_LOOP('',(#732));
#732 = ORIENTED_EDGE('',*,*,#21,.T.);
#733 = ADVANCED_FACE('',(#734),#93,.F.);
#734 = FACE_BOUND('',#735,.T.);
#735 = EDGE_LOOP('',(#736));
#736 = ORIENTED_EDGE('',*,*,#78,.F.);
#737 = ADVANCED_FACE('',(#738),#312,.T.);
#738 = FACE_BOUND('',#739,.T.);
#739 = EDGE_LOOP('',(#740,#741,#764,#791));
#740 = ORIENTED_EDGE('',*,*,#108,.F.);
#741 = ORIENTED_EDGE('',*,*,#742,.F.);
#742 = EDGE_CURVE('',#743,#109,#745,.T.);
#743 = VERTEX_POINT('',#744);
#744 = CARTESIAN_POINT('',(80.,1.959434878636E-15,723.));
#745 = SEAM_CURVE('',#746,(#750,#757),.PCURVE_S1.);
#746 = LINE('',#747,#748);
#747 = CARTESIAN_POINT('',(80.,1.959434878636E-15,723.));
#748 = VECTOR('',#749,1.);
#749 = DIRECTION('',(1.,0.,0.));
#750 = PCURVE('',#312,#751);
#751 = DEFINITIONAL_REPRESENTATION('',(#752),#756);
#752 = LINE('',#753,#754);
#753 = CARTESIAN_POINT('',(6.28318530718,-0.));
#754 = VECTOR('',#755,1.);
#755 = DIRECTION('',(0.,1.));
#756 = ( GEOMETRIC_REPRESENTATION_CONTEXT(2) 
PARAMETRIC_REPRESENTATION_CONTEXT() REPRESENTATION_CONTEXT('2D SPACE',''
  ) );
#757 = PCURVE('',#312,#758);
#758 = DEFINITIONAL_REPRESENTATION('',(#759),#763);
#759 = LINE('',#760,#761);
#760 = CARTESIAN_POINT('',(0.,-0.));
#761 = VECTOR('',#762,1.);
#762 = DIRECTION('',(0.,1.));
#763 = ( GEOMETRIC_REPRESENTATION_CONTEXT(2) 
PARAMETRIC_REPRESENTATION_CONTEXT() REPRESENTATION_CONTEXT('2D SPACE',''
  ) );
#764 = ORIENTED_EDGE('',*,*,#765,.T.);
#765 = EDGE_CURVE('',#743,#743,#766,.T.);
#766 = SURFACE_CURVE('',#767,(#772,#779),.PCURVE_S1.);
#767 = CIRCLE('',#768,8.);
#768 = AXIS2_PLACEMENT_3D('',#769,#770,#771);
#769 = CARTESIAN_POINT('',(80.,0.,715.));
#770 = DIRECTION('',(1.,0.,0.));
#771 = DIRECTION('',(-0.,0.,1.));
#772 = PCURVE('',#312,#773);
#773 = DEFINITIONAL_REPRESENTATION('',(#774),#778);
#774 = LINE('',#775,#776);
#775 = CARTESIAN_POINT('',(0.,0.));
#776 = VECTOR('',#777,1.);
#777 = DIRECTION('',(1.,0.));
#778 = ( GEOMETRIC_REPRESENTATION_CONTEXT(2) 
PARAMETRIC_REPRESENTATION_CONTEXT() REPRESENTATION_CONTEXT('2D SPACE',''
  ) );
#779 = PCURVE('',#780,#785);
#780 = PLANE('',#781);
#781 = AXIS2_PLACEMENT_3D('',#782,#783,#784);
#782 = CARTESIAN_POINT('',(80.,0.,715.));
#783 = DIRECTION('',(1.,0.,0.));
#784 = DIRECTION('',(-0.,0.,1.));
#785 = DEFINITIONAL_REPRESENTATION('',(#786),#790);
#786 = CIRCLE('',#787,8.);
#787 = AXIS2_PLACEMENT_2D('',#788,#789);
#788 = CARTESIAN_POINT('',(0.,0.));
#789 = DIRECTION('',(1.,0.));
#790 = ( GEOMETRIC_REPRESENTATION_CONTEXT(2) 
PARAMETRIC_REPRESENTATION_CONTEXT() REPRESENTATION_CONTEXT('2D SPACE',''
  ) );
#791 = ORIENTED_EDGE('',*,*,#742,.T.);
#792 = ADVANCED_FACE('',(#793),#624,.T.);
#793 = FACE_BOUND('',#794,.T.);
#794 = EDGE_LOOP('',(#795,#796,#819,#846));
#795 = ORIENTED_EDGE('',*,*,#420,.F.);
#796 = ORIENTED_EDGE('',*,*,#797,.F.);
#797 = EDGE_CURVE('',#798,#421,#800,.T.);
#798 = VERTEX_POINT('',#799);
#799 = CARTESIAN_POINT('',(80.,1.959434878636E-15,993.));
#800 = SEAM_CURVE('',#801,(#805,#812),.PCURVE_S1.);
#801 = LINE('',#802,#803);
#802 = CARTESIAN_POINT('',(80.,1.959434878636E-15,993.));
#803 = VECTOR('',#804,1.);
#804 = DIRECTION('',(1.,0.,0.));
#805 = PCURVE('',#624,#806);
#806 = DEFINITIONAL_REPRESENTATION('',(#807),#811);
#807 = LINE('',#808,#809);
#808 = CARTESIAN_POINT('',(6.28318530718,-0.));
#809 = VECTOR('',#810,1.);
#810 = DIRECTION('',(0.,1.));
#811 = ( GEOMETRIC_REPRESENTATION_CONTEXT(2) 
PARAMETRIC_REPRESENTATION_CONTEXT() REPRESENTATION_CONTEXT('2D SPACE',''
  ) );
#812 = PCURVE('',#624,#813);
#813 = DEFINITIONAL_REPRESENTATION('',(#814),#818);
#814 = LINE('',#815,#816);
#815 = CARTESIAN_POINT('',(0.,-0.));
#816 = VECTOR('',#817,1.);
#817 = DIRECTION('',(0.,1.));
#818 = ( GEOMETRIC_REPRESENTATION_CONTEXT(2) 
PARAMETRIC_REPRESENTATION_CONTEXT() REPRESENTATION_CONTEXT('2D SPACE',''
  ) );
#819 = ORIENTED_EDGE('',*,*,#820,.T.);
#820 = EDGE_CURVE('',#798,#798,#821,.T.);
#821 = SURFACE_CURVE('',#822,(#827,#834),.PCURVE_S1.);
#822 = CIRCLE('',#823,8.);
#823 = AXIS2_PLACEMENT_3D('',#824,#825,#826);
#824 = CARTESIAN_POINT('',(80.,0.,985.));
#825 = DIRECTION('',(1.,0.,0.));
#826 = DIRECTION('',(-0.,0.,1.));
#827 = PCURVE('',#624,#828);
#828 = DEFINITIONAL_REPRESENTATION('',(#829),#833);
#829 = LINE('',#830,#831);
#830 = CARTESIAN_POINT('',(0.,0.));
#831 = VECTOR('',#832,1.);
#832 = DIRECTION('',(1.,0.));
#833 = ( GEOMETRIC_REPRESENTATION_CONTEXT(2) 
PARAMETRIC_REPRESENTATION_CONTEXT() REPRESENTATION_CONTEXT('2D SPACE',''
  ) );
#834 = PCURVE('',#835,#840);
#835 = PLANE('',#836);
#836 = AXIS2_PLACEMENT_3D('',#837,#838,#839);
#837 = CARTESIAN_POINT('',(80.,0.,985.));
#838 = DIRECTION('',(1.,0.,0.));
#839 = DIRECTION('',(-0.,0.,1.));
#840 = DEFINITIONAL_REPRESENTATION('',(#841),#845);
#841 = CIRCLE('',#842,8.);
#842 = AXIS2_PLACEMENT_2D('',#843,#844);
#843 = CARTESIAN_POINT('',(0.,0.));
#844 = DIRECTION('',(1.,0.));
#845 = ( GEOMETRIC_REPRESENTATION_CONTEXT(2) 
PARAMETRIC_REPRESENTATION_CONTEXT() REPRESENTATION_CONTEXT('2D SPACE',''
  ) );
#846 = ORIENTED_EDGE('',*,*,#797,.T.);
#847 = ADVANCED_FACE('',(#848),#780,.F.);
#848 = FACE_BOUND('',#849,.T.);
#849 = EDGE_LOOP('',(#850));
#850 = ORIENTED_EDGE('',*,*,#765,.F.);
#851 = ADVANCED_FACE('',(#852),#835,.F.);
#852 = FACE_BOUND('',#853,.T.);
#853 = EDGE_LOOP('',(#854));
#854 = ORIENTED_EDGE('',*,*,#820,.F.);
#855 = ( GEOMETRIC_REPRESENTATION_CONTEXT(3) 
GLOBAL_UNCERTAINTY_ASSIGNED_CONTEXT((#859)) GLOBAL_UNIT_ASSIGNED_CONTEXT
((#856,#857,#858)) REPRESENTATION_CONTEXT('Context #1',
  '3D Context with UNIT and UNCERTAINTY') );
#856 = ( LENGTH_UNIT() NAMED_UNIT(*) SI_UNIT(.MILLI.,.METRE.) );
#857 = ( NAMED_UNIT(*) PLANE_ANGLE_UNIT() SI_UNIT($,.RADIAN.) );
#858 = ( NAMED_UNIT(*) SI_UNIT($,.STERADIAN.) SOLID_ANGLE_UNIT() );
#859 = UNCERTAINTY_MEASURE_WITH_UNIT(LENGTH_MEASURE(1.E-07),#856,
  'distance_accuracy_value','confusion accuracy');
#860 = PRODUCT_RELATED_PRODUCT_CATEGORY('part',$,(#7));
ENDSEC;
END-ISO-10303-21;
